# Blender v2.71 (sub 0) OBJ File: ''
# www.blender.org
o LeftLeg
v 0.281250 0.337500 -0.312500
v 0.218750 0.337500 -0.312500
v 0.218750 0.525000 -0.312500
v 0.281250 0.525000 -0.312500
v 0.218750 0.337500 -0.062500
v 0.281250 0.337500 -0.062500
v 0.281250 0.525000 -0.062500
v 0.218750 0.525000 -0.062500
v 0.093750 0.775000 -0.875000
v -0.093750 0.775000 -0.875000
v -0.093750 0.962500 -0.875000
v 0.093750 0.962500 -0.875000
v -0.093750 0.775000 -0.562500
v 0.093750 0.775000 -0.562500
v 0.093750 0.962500 -0.562500
v -0.093750 0.962500 -0.562500
v -0.220000 0.337500 -0.312500
v -0.282500 0.337500 -0.312500
v -0.282500 0.525000 -0.312500
v -0.220000 0.525000 -0.312500
v -0.282500 0.337500 -0.062500
v -0.220000 0.337500 -0.062500
v -0.220000 0.525000 -0.062500
v -0.282500 0.525000 -0.062500
v -0.031250 -0.037500 -0.187500
v -0.218750 -0.037500 -0.187500
v -0.218750 0.150000 -0.187500
v -0.031250 0.150000 -0.187500
v -0.218750 -0.037500 -0.000000
v -0.031250 -0.037500 -0.000000
v -0.031250 0.150000 0.000000
v -0.218750 0.150000 0.000000
v 0.125000 0.463577 0.050949
v -0.125000 0.463577 0.050949
v -0.125000 0.709270 0.097152
v 0.125000 0.709270 0.097152
v -0.125000 0.417374 0.296643
v 0.125000 0.417374 0.296643
v 0.125000 0.663068 0.342845
v -0.125000 0.663068 0.342845
v 0.218750 0.150000 -0.187500
v -0.218750 0.150000 -0.187500
v -0.218750 0.212500 -0.187500
v 0.218750 0.212500 -0.187500
v -0.218750 0.150000 0.062500
v 0.218750 0.150000 0.062500
v 0.218750 0.212500 0.062500
v -0.218750 0.212500 0.062500
v 0.156250 0.775000 -0.562500
v -0.156250 0.775000 -0.562500
v -0.156250 1.025000 -0.562500
v 0.156250 1.025000 -0.562500
v -0.156250 0.775000 -0.312500
v 0.156250 0.775000 -0.312500
v 0.156250 1.025000 -0.312500
v -0.156250 1.025000 -0.312500
v 0.218750 -0.037500 -0.187500
v 0.031250 -0.037500 -0.187500
v 0.031250 0.150000 -0.187500
v 0.218750 0.150000 -0.187500
v 0.031250 -0.037500 -0.000000
v 0.218750 -0.037500 -0.000000
v 0.218750 0.150000 0.000000
v 0.031250 0.150000 0.000000
v 0.218750 0.212500 -0.375000
v -0.218750 0.212500 -0.375000
v -0.218750 0.650000 -0.375000
v 0.218750 0.650000 -0.375000
v -0.218750 0.212500 0.187500
v 0.218750 0.212500 0.187500
v 0.218750 0.650000 0.187500
v -0.218750 0.650000 0.187500
v 0.093750 0.474887 -0.548104
v -0.093750 0.474887 -0.548104
v -0.093750 0.962500 -0.437500
v 0.093750 0.962500 -0.437500
v -0.093750 0.433410 -0.365249
v 0.093750 0.433410 -0.365249
v 0.093750 0.921023 -0.254645
v -0.093750 0.921023 -0.254645
v 0.281250 0.337500 -0.312500
v 0.281250 0.337500 -0.312500
v 0.281250 0.337500 -0.062500
v 0.281250 0.337500 -0.062500
v 0.218750 0.337500 -0.312500
v 0.218750 0.337500 -0.312500
v 0.218750 0.525000 -0.312500
v 0.218750 0.525000 -0.312500
v 0.218750 0.337500 -0.062500
v 0.218750 0.337500 -0.062500
v 0.218750 0.525000 -0.062500
v 0.218750 0.525000 -0.062500
v 0.281250 0.525000 -0.062500
v 0.281250 0.525000 -0.062500
v 0.281250 0.525000 -0.312500
v 0.281250 0.525000 -0.312500
v 0.093750 0.775000 -0.875000
v 0.093750 0.775000 -0.875000
v 0.093750 0.775000 -0.562500
v 0.093750 0.775000 -0.562500
v -0.093750 0.775000 -0.875000
v -0.093750 0.775000 -0.875000
v -0.093750 0.962500 -0.875000
v -0.093750 0.962500 -0.875000
v -0.093750 0.775000 -0.562500
v -0.093750 0.775000 -0.562500
v -0.093750 0.962500 -0.562500
v -0.093750 0.962500 -0.562500
v 0.093750 0.962500 -0.562500
v 0.093750 0.962500 -0.562500
v 0.093750 0.962500 -0.875000
v 0.093750 0.962500 -0.875000
v -0.220000 0.337500 -0.312500
v -0.220000 0.337500 -0.312500
v -0.220000 0.337500 -0.062500
v -0.220000 0.337500 -0.062500
v -0.282500 0.337500 -0.312500
v -0.282500 0.337500 -0.312500
v -0.282500 0.525000 -0.312500
v -0.282500 0.525000 -0.312500
v -0.282500 0.337500 -0.062500
v -0.282500 0.337500 -0.062500
v -0.282500 0.525000 -0.062500
v -0.282500 0.525000 -0.062500
v -0.220000 0.525000 -0.062500
v -0.220000 0.525000 -0.062500
v -0.220000 0.525000 -0.312500
v -0.220000 0.525000 -0.312500
v -0.031250 -0.037500 -0.187500
v -0.031250 -0.037500 -0.187500
v -0.031250 -0.037500 -0.000000
v -0.031250 -0.037500 -0.000000
v -0.218750 -0.037500 -0.187500
v -0.218750 -0.037500 -0.187500
v -0.218750 0.150000 -0.187500
v -0.218750 0.150000 -0.187500
v -0.218750 -0.037500 -0.000000
v -0.218750 -0.037500 -0.000000
v -0.218750 0.150000 0.000000
v -0.218750 0.150000 0.000000
v -0.031250 0.150000 0.000000
v -0.031250 0.150000 0.000000
v -0.031250 0.150000 -0.187500
v -0.031250 0.150000 -0.187500
v 0.125000 0.463577 0.050949
v 0.125000 0.463577 0.050949
v 0.125000 0.417374 0.296643
v 0.125000 0.417374 0.296643
v -0.125000 0.463577 0.050949
v -0.125000 0.463577 0.050949
v -0.125000 0.709270 0.097152
v -0.125000 0.709270 0.097152
v -0.125000 0.417374 0.296643
v -0.125000 0.417374 0.296643
v -0.125000 0.663068 0.342845
v -0.125000 0.663068 0.342845
v 0.125000 0.663068 0.342845
v 0.125000 0.663068 0.342845
v 0.125000 0.709270 0.097152
v 0.125000 0.709270 0.097152
v 0.218750 0.150000 -0.187500
v 0.218750 0.150000 -0.187500
v 0.218750 0.150000 0.062500
v 0.218750 0.150000 0.062500
v -0.218750 0.150000 -0.187500
v -0.218750 0.150000 -0.187500
v -0.218750 0.212500 -0.187500
v -0.218750 0.212500 -0.187500
v -0.218750 0.150000 0.062500
v -0.218750 0.150000 0.062500
v -0.218750 0.212500 0.062500
v -0.218750 0.212500 0.062500
v 0.218750 0.212500 0.062500
v 0.218750 0.212500 0.062500
v 0.218750 0.212500 -0.187500
v 0.218750 0.212500 -0.187500
v 0.156250 0.775000 -0.562500
v 0.156250 0.775000 -0.562500
v 0.156250 0.775000 -0.312500
v 0.156250 0.775000 -0.312500
v -0.156250 0.775000 -0.562500
v -0.156250 0.775000 -0.562500
v -0.156250 1.025000 -0.562500
v -0.156250 1.025000 -0.562500
v -0.156250 0.775000 -0.312500
v -0.156250 0.775000 -0.312500
v -0.156250 1.025000 -0.312500
v -0.156250 1.025000 -0.312500
v 0.156250 1.025000 -0.312500
v 0.156250 1.025000 -0.312500
v 0.156250 1.025000 -0.562500
v 0.156250 1.025000 -0.562500
v 0.218750 -0.037500 -0.187500
v 0.218750 -0.037500 -0.187500
v 0.218750 -0.037500 -0.000000
v 0.218750 -0.037500 -0.000000
v 0.031250 -0.037500 -0.187500
v 0.031250 -0.037500 -0.187500
v 0.031250 0.150000 -0.187500
v 0.031250 0.150000 -0.187500
v 0.031250 -0.037500 -0.000000
v 0.031250 -0.037500 -0.000000
v 0.031250 0.150000 0.000000
v 0.031250 0.150000 0.000000
v 0.218750 0.150000 0.000000
v 0.218750 0.150000 0.000000
v 0.218750 0.150000 -0.187500
v 0.218750 0.150000 -0.187500
v 0.218750 0.212500 -0.375000
v 0.218750 0.212500 -0.375000
v 0.218750 0.212500 0.187500
v 0.218750 0.212500 0.187500
v -0.218750 0.212500 -0.375000
v -0.218750 0.212500 -0.375000
v -0.218750 0.650000 -0.375000
v -0.218750 0.650000 -0.375000
v -0.218750 0.212500 0.187500
v -0.218750 0.212500 0.187500
v -0.218750 0.650000 0.187500
v -0.218750 0.650000 0.187500
v 0.218750 0.650000 0.187500
v 0.218750 0.650000 0.187500
v 0.218750 0.650000 -0.375000
v 0.218750 0.650000 -0.375000
v 0.093750 0.474887 -0.548104
v 0.093750 0.474887 -0.548104
v 0.093750 0.433410 -0.365249
v 0.093750 0.433410 -0.365249
v -0.093750 0.474887 -0.548104
v -0.093750 0.474887 -0.548104
v -0.093750 0.962500 -0.437500
v -0.093750 0.962500 -0.437500
v -0.093750 0.433410 -0.365249
v -0.093750 0.433410 -0.365249
v -0.093750 0.921023 -0.254645
v -0.093750 0.921023 -0.254645
v 0.093750 0.921023 -0.254645
v 0.093750 0.921023 -0.254645
v 0.093750 0.962500 -0.437500
v 0.093750 0.962500 -0.437500
vt 0.609375 0.000000
vt 0.609375 0.093750
vt 0.593750 0.093750
vt 0.687500 0.000000
vt 0.687500 0.093750
vt 0.671875 0.093750
vt 0.609375 0.218750
vt 0.593750 0.218750
vt 0.625000 0.093750
vt 0.531250 0.000000
vt 0.593750 0.000000
vt 0.671875 0.000000
vt 0.484375 0.718750
vt 0.484375 0.812500
vt 0.437500 0.812500
vt 0.609375 0.718750
vt 0.609375 0.812500
vt 0.562500 0.812500
vt 0.484375 0.968750
vt 0.437500 0.968750
vt 0.531250 0.812500
vt 0.437500 0.718750
vt 0.359375 0.812500
vt 0.562500 0.718750
vt 0.437500 0.062500
vt 0.437500 0.156250
vt 0.390625 0.156250
vt 0.531250 0.062500
vt 0.531250 0.156250
vt 0.484375 0.156250
vt 0.437500 0.250000
vt 0.390625 0.250000
vt 0.390625 0.062500
vt 0.343750 0.156250
vt 0.484375 0.062500
vt 0.343750 0.250000
vt 0.343750 0.375000
vt 0.281250 0.375000
vt 0.468750 0.250000
vt 0.468750 0.375000
vt 0.406250 0.375000
vt 0.343750 0.500000
vt 0.281250 0.500000
vt 0.281250 0.250000
vt 0.218750 0.375000
vt 0.406250 0.250000
vt 0.171875 0.000000
vt 0.171875 0.031250
vt 0.062500 0.031250
vt 0.343750 0.000000
vt 0.343750 0.031250
vt 0.234375 0.031250
vt 0.171875 0.156250
vt 0.062500 0.156250
vt 0.281250 0.031250
vt 0.062500 0.000000
vt 0.000000 0.031250
vt 0.234375 0.000000
vt 0.687500 0.593750
vt 0.687500 0.718750
vt 0.828125 0.593750
vt 0.828125 0.718750
vt 0.750000 0.718750
vt 0.687500 0.843750
vt 0.609375 0.843750
vt 0.765625 0.718750
vt 0.546875 0.593750
vt 0.609375 0.593750
vt 0.750000 0.593750
vt 0.250000 0.500000
vt 0.250000 0.718750
vt 0.140625 0.718750
vt 0.500000 0.500000
vt 0.500000 0.718750
vt 0.390625 0.718750
vt 0.250000 1.000000
vt 0.140625 1.000000
vt 0.359375 0.718750
vt 0.140625 0.500000
vt 0.000000 0.718750
vt 0.390625 0.500000
vt 0.093750 0.156250
vt 0.093750 0.406250
vt 0.046875 0.406250
vt 0.187500 0.156250
vt 0.187500 0.406250
vt 0.140625 0.406250
vt 0.093750 0.500000
vt 0.046875 0.500000
vt 0.000000 0.156250
vt 0.046875 0.156250
vt 0.140625 0.156250
vt 0.625000 0.218750
vt 0.531250 0.093750
vt 0.531250 0.968750
vt 0.484375 0.250000
vt 0.343750 0.062500
vt 0.406250 0.500000
vt 0.218750 0.250000
vt 0.281250 0.156250
vt 0.000000 0.000000
vt 0.765625 0.843750
vt 0.546875 0.718750
vt 0.359375 1.000000
vt 0.000000 0.500000
vt 0.000000 0.406250
vn 0.000000 0.000000 -1.000000
vn 0.000000 -0.000000 1.000000
vn 0.000000 1.000000 0.000000
vn 0.000000 -1.000000 -0.000000
vn 1.000000 -0.000000 0.000000
vn -1.000000 0.000000 0.000000
vn 0.000000 0.184800 -0.982800
vn 0.000000 -0.184800 0.982800
vn 0.000000 0.982800 0.184800
vn 0.000000 -0.982800 -0.184800
vn 0.000000 0.221200 -0.975200
vn 0.000000 -0.221200 0.975200
vn 0.000000 0.975200 0.221200
vn 0.000000 -0.975200 -0.221200
s off
f 2/1/1 3/2/1 95/3/1
f 83/4/2 7/5/2 91/6/2
f 87/2/3 8/7/3 93/8/3
f 1/7/4 6/2/4 5/9/4
f 84/10/5 82/11/5 96/3/5
f 90/12/6 92/6/6 88/2/6
f 10/13/1 11/14/1 111/15/1
f 99/16/2 15/17/2 107/18/2
f 103/14/3 16/19/3 109/20/3
f 9/19/4 14/14/4 13/21/4
f 98/22/5 112/15/5 110/23/5
f 106/24/6 108/18/6 104/14/6
f 18/1/1 19/2/1 127/3/1
f 115/4/2 23/5/2 123/6/2
f 119/2/3 24/7/3 125/8/3
f 17/7/4 22/2/4 21/9/4
f 116/10/5 114/11/5 128/3/5
f 122/12/6 124/6/6 120/2/6
f 26/25/1 27/26/1 143/27/1
f 131/28/2 31/29/2 139/30/2
f 135/26/3 32/31/3 141/32/3
f 25/31/4 30/26/4 29/30/4
f 130/33/5 144/27/5 142/34/5
f 138/35/6 140/30/6 136/26/6
f 34/36/7 35/37/7 159/38/7
f 147/39/8 39/40/8 155/41/8
f 151/37/9 40/42/9 157/43/9
f 33/42/10 38/37/10 37/41/10
f 146/44/5 160/38/5 158/45/5
f 154/46/6 156/41/6 152/37/6
f 42/47/1 43/48/1 175/49/1
f 163/50/2 47/51/2 171/52/2
f 167/48/3 48/53/3 173/54/3
f 41/53/4 46/48/4 45/55/4
f 162/56/5 176/49/5 174/57/5
f 170/58/6 172/52/6 168/48/6
f 50/59/1 51/60/1 191/16/1
f 179/61/2 55/62/2 187/63/2
f 183/60/3 56/64/3 189/65/3
f 49/64/4 54/60/4 53/66/4
f 180/67/5 178/68/5 192/16/5
f 186/69/6 188/63/6 184/60/6
f 58/25/1 59/26/1 207/27/1
f 195/28/2 63/29/2 203/30/2
f 199/26/3 64/31/3 205/32/3
f 57/31/4 62/26/4 61/30/4
f 194/33/5 208/27/5 206/34/5
f 202/35/6 204/30/6 200/26/6
f 66/70/1 67/71/1 223/72/1
f 211/73/2 71/74/2 219/75/2
f 215/71/3 72/76/3 221/77/3
f 65/76/4 70/71/4 69/78/4
f 210/79/5 224/72/5 222/80/5
f 218/81/6 220/75/6 216/71/6
f 74/82/11 75/83/11 239/84/11
f 227/85/12 79/86/12 235/87/12
f 231/83/13 80/88/13 237/89/13
f 73/88/14 78/83/14 77/87/14
f 228/90/5 226/91/5 240/84/5
f 234/92/6 236/87/6 232/83/6
f 81/11/1 2/1/1 95/3/1
f 89/12/2 83/4/2 91/6/2
f 4/3/3 87/2/3 93/8/3
f 85/93/4 1/7/4 5/9/4
f 94/94/5 84/10/5 96/3/5
f 86/1/6 90/12/6 88/2/6
f 97/22/1 10/13/1 111/15/1
f 105/24/2 99/16/2 107/18/2
f 12/15/3 103/14/3 109/20/3
f 101/95/4 9/19/4 13/21/4
f 100/78/5 98/22/5 110/23/5
f 102/13/6 106/24/6 104/14/6
f 113/11/1 18/1/1 127/3/1
f 121/12/2 115/4/2 123/6/2
f 20/3/3 119/2/3 125/8/3
f 117/93/4 17/7/4 21/9/4
f 126/94/5 116/10/5 128/3/5
f 118/1/6 122/12/6 120/2/6
f 129/33/1 26/25/1 143/27/1
f 137/35/2 131/28/2 139/30/2
f 28/27/3 135/26/3 141/32/3
f 133/96/4 25/31/4 29/30/4
f 132/97/5 130/33/5 142/34/5
f 134/25/6 138/35/6 136/26/6
f 145/44/7 34/36/7 159/38/7
f 153/46/8 147/39/8 155/41/8
f 36/38/9 151/37/9 157/43/9
f 149/98/10 33/42/10 37/41/10
f 148/99/5 146/44/5 158/45/5
f 150/36/6 154/46/6 152/37/6
f 161/56/1 42/47/1 175/49/1
f 169/58/2 163/50/2 171/52/2
f 44/49/3 167/48/3 173/54/3
f 165/100/4 41/53/4 45/55/4
f 164/101/5 162/56/5 174/57/5
f 166/47/6 170/58/6 168/48/6
f 177/68/1 50/59/1 191/16/1
f 185/69/2 179/61/2 187/63/2
f 52/16/3 183/60/3 189/65/3
f 181/102/4 49/64/4 53/66/4
f 190/103/5 180/67/5 192/16/5
f 182/59/6 186/69/6 184/60/6
f 193/33/1 58/25/1 207/27/1
f 201/35/2 195/28/2 203/30/2
f 60/27/3 199/26/3 205/32/3
f 197/96/4 57/31/4 61/30/4
f 196/97/5 194/33/5 206/34/5
f 198/25/6 202/35/6 200/26/6
f 209/79/1 66/70/1 223/72/1
f 217/81/2 211/73/2 219/75/2
f 68/72/3 215/71/3 221/77/3
f 213/104/4 65/76/4 69/78/4
f 212/105/5 210/79/5 222/80/5
f 214/70/6 218/81/6 216/71/6
f 225/91/11 74/82/11 239/84/11
f 233/92/12 227/85/12 235/87/12
f 76/84/13 231/83/13 237/89/13
f 229/79/14 73/88/14 77/87/14
f 238/106/5 228/90/5 240/84/5
f 230/82/6 234/92/6 232/83/6
